<svg xmlns="http://www.w3.org/2000/svg" viewBox="0 0 24 24" width="24" height="24" color="#000000" fill="none">
    <defs/>
    <path fill="#141B34" d="M8.557,17.396 C8.719,17.274 9.2,16.91 9.478,16.694 C10.034,16.26 10.773,15.666 11.51,15.027 C12.251,14.384 12.972,13.708 13.502,13.108 C13.768,12.807 13.97,12.543 14.102,12.325 C14.226,12.119 14.251,11.998 14.251,11.998 C14.251,11.998 14.226,11.881 14.102,11.675 C13.97,11.457 13.768,11.193 13.502,10.892 C12.972,10.292 12.251,9.617 11.51,8.973 C10.773,8.334 10.034,7.741 9.478,7.306 C9.2,7.09 8.719,6.726 8.558,6.604 C8.224,6.359 8.152,5.889 8.398,5.555 C8.644,5.222 9.113,5.151 9.447,5.396 L9.449,5.398 C9.618,5.526 10.117,5.903 10.401,6.124 C10.97,6.568 11.731,7.178 12.494,7.841 C13.253,8.5 14.032,9.226 14.627,9.899 C14.923,10.235 15.19,10.575 15.386,10.901 C15.571,11.207 15.752,11.594 15.752,12 C15.752,12.407 15.571,12.793 15.386,13.099 C15.19,13.425 14.923,13.765 14.627,14.101 C14.032,14.774 13.253,15.5 12.494,16.159 C11.731,16.822 10.97,17.432 10.401,17.876 C10.117,18.097 9.618,18.474 9.449,18.602 L9.447,18.604 C9.114,18.849 8.644,18.778 8.398,18.445 C8.152,18.111 8.224,17.642 8.557,17.396 Z"/>
</svg>